<svg width="1302" height="1625" viewBox="0 0 1302 1625" fill="none" xmlns="http://www.w3.org/2000/svg">
<path d="M469.534 1532.8C527.224 1556.7 589.056 1569 651.5 1569C713.944 1569 775.776 1556.7 833.466 1532.8L651.5 1093.5L469.534 1532.8Z" fill="#2B2A29"/>
<g filter="url(#filter0_d_58_80)">
<path fill-rule="evenodd" clip-rule="evenodd" d="M439.2 84C391.862 84 347.93 108.615 323.212 148.987L303 182H214C147.726 182 94 235.726 94 302V977C94 1277.44 337.557 1521 638 1521H664C964.443 1521 1208 1277.44 1208 977V302C1208 235.726 1154.27 182 1088 182H998L977.788 148.987C953.07 108.615 909.138 84 861.8 84H439.2Z" fill="#FEFEFE"/>
</g>
<rect x="257" y="249" width="788" height="513" rx="96" fill="#2B2A29"/>
<path d="M388.252 387.594C388.252 385.801 387.971 384.219 387.408 382.848C386.881 381.441 385.932 380.176 384.561 379.051C383.225 377.926 381.361 376.854 378.971 375.834C376.615 374.814 373.627 373.777 370.006 372.723C366.209 371.598 362.781 370.35 359.723 368.979C356.664 367.572 354.045 365.973 351.865 364.18C349.686 362.387 348.016 360.33 346.855 358.01C345.695 355.689 345.115 353.035 345.115 350.047C345.115 347.059 345.73 344.299 346.961 341.768C348.191 339.236 349.949 337.039 352.234 335.176C354.555 333.277 357.314 331.801 360.514 330.746C363.713 329.691 367.281 329.164 371.219 329.164C376.984 329.164 381.871 330.271 385.879 332.486C389.922 334.666 392.998 337.531 395.107 341.082C397.217 344.598 398.271 348.359 398.271 352.367H388.146C388.146 349.484 387.531 346.936 386.301 344.721C385.07 342.471 383.207 340.713 380.711 339.447C378.215 338.146 375.051 337.496 371.219 337.496C367.598 337.496 364.609 338.041 362.254 339.131C359.898 340.221 358.141 341.697 356.98 343.561C355.855 345.424 355.293 347.551 355.293 349.941C355.293 351.559 355.627 353.035 356.295 354.371C356.998 355.672 358.07 356.885 359.512 358.01C360.988 359.135 362.852 360.172 365.102 361.121C367.387 362.07 370.111 362.984 373.275 363.863C377.635 365.094 381.396 366.465 384.561 367.977C387.725 369.488 390.326 371.193 392.365 373.092C394.439 374.955 395.969 377.082 396.953 379.473C397.973 381.828 398.482 384.5 398.482 387.488C398.482 390.617 397.85 393.447 396.584 395.979C395.318 398.51 393.508 400.672 391.152 402.465C388.797 404.258 385.967 405.646 382.662 406.631C379.393 407.58 375.736 408.055 371.693 408.055C368.143 408.055 364.645 407.562 361.199 406.578C357.789 405.594 354.678 404.117 351.865 402.148C349.088 400.18 346.855 397.754 345.168 394.871C343.516 391.953 342.689 388.578 342.689 384.746H352.814C352.814 387.383 353.324 389.65 354.344 391.549C355.363 393.412 356.752 394.959 358.51 396.189C360.303 397.42 362.324 398.334 364.574 398.932C366.859 399.494 369.232 399.775 371.693 399.775C375.244 399.775 378.25 399.283 380.711 398.299C383.172 397.314 385.035 395.908 386.301 394.08C387.602 392.252 388.252 390.09 388.252 387.594ZM433.656 408.055C429.684 408.055 426.08 407.387 422.846 406.051C419.646 404.68 416.887 402.764 414.566 400.303C412.281 397.842 410.523 394.924 409.293 391.549C408.062 388.174 407.447 384.482 407.447 380.475V378.26C407.447 373.619 408.133 369.488 409.504 365.867C410.875 362.211 412.738 359.117 415.094 356.586C417.449 354.055 420.121 352.139 423.109 350.838C426.098 349.537 429.191 348.887 432.391 348.887C436.469 348.887 439.984 349.59 442.938 350.996C445.926 352.402 448.369 354.371 450.268 356.902C452.166 359.398 453.572 362.352 454.486 365.762C455.4 369.137 455.857 372.828 455.857 376.836V381.213H413.248V373.25H446.102V372.512C445.961 369.98 445.434 367.52 444.52 365.129C443.641 362.738 442.234 360.77 440.301 359.223C438.367 357.676 435.73 356.902 432.391 356.902C430.176 356.902 428.137 357.377 426.273 358.326C424.41 359.24 422.811 360.611 421.475 362.439C420.139 364.268 419.102 366.5 418.363 369.137C417.625 371.773 417.256 374.814 417.256 378.26V380.475C417.256 383.182 417.625 385.73 418.363 388.121C419.137 390.477 420.244 392.551 421.686 394.344C423.162 396.137 424.938 397.543 427.012 398.562C429.121 399.582 431.512 400.092 434.184 400.092C437.629 400.092 440.547 399.389 442.938 397.982C445.328 396.576 447.42 394.695 449.213 392.34L455.119 397.033C453.889 398.896 452.324 400.672 450.426 402.359C448.527 404.047 446.189 405.418 443.412 406.473C440.67 407.527 437.418 408.055 433.656 408.055ZM477.848 326V407H468.039V326H477.848ZM508.064 407H498.309V343.93C498.309 339.816 499.047 336.354 500.523 333.541C502.035 330.693 504.197 328.549 507.01 327.107C509.822 325.631 513.162 324.893 517.029 324.893C518.154 324.893 519.279 324.963 520.404 325.104C521.564 325.244 522.689 325.455 523.779 325.736L523.252 333.699C522.514 333.523 521.67 333.4 520.721 333.33C519.807 333.26 518.893 333.225 517.979 333.225C515.904 333.225 514.111 333.646 512.6 334.49C511.123 335.299 509.998 336.494 509.225 338.076C508.451 339.658 508.064 341.609 508.064 343.93V407ZM520.193 349.941V357.43H489.291V349.941H520.193ZM600.877 381.266H617.963C617.682 386.539 616.24 391.197 613.639 395.24C611.072 399.248 607.504 402.395 602.934 404.68C598.363 406.93 592.932 408.055 586.639 408.055C581.611 408.055 577.111 407.193 573.139 405.471C569.166 403.748 565.791 401.287 563.014 398.088C560.271 394.854 558.162 390.969 556.686 386.434C555.244 381.863 554.523 376.713 554.523 370.982V366.289C554.523 360.559 555.279 355.408 556.791 350.838C558.303 346.268 560.465 342.365 563.277 339.131C566.09 335.896 569.465 333.418 573.402 331.695C577.34 329.973 581.734 329.111 586.586 329.111C593.125 329.111 598.645 330.289 603.145 332.645C607.645 335 611.125 338.234 613.586 342.348C616.082 346.461 617.576 351.154 618.068 356.428H600.93C600.789 353.439 600.227 350.926 599.242 348.887C598.258 346.812 596.746 345.248 594.707 344.193C592.668 343.139 589.961 342.611 586.586 342.611C584.125 342.611 581.963 343.068 580.1 343.982C578.271 344.896 576.742 346.32 575.512 348.254C574.316 350.188 573.42 352.648 572.822 355.637C572.225 358.59 571.926 362.105 571.926 366.184V370.982C571.926 375.025 572.189 378.523 572.717 381.477C573.244 384.43 574.088 386.873 575.248 388.807C576.443 390.74 577.973 392.182 579.836 393.131C581.699 394.08 583.967 394.555 586.639 394.555C589.697 394.555 592.246 394.08 594.285 393.131C596.324 392.146 597.889 390.67 598.979 388.701C600.068 386.732 600.701 384.254 600.877 381.266ZM656.881 393.395V368.926C656.881 367.203 656.617 365.727 656.09 364.496C655.562 363.266 654.736 362.299 653.611 361.596C652.486 360.893 651.027 360.541 649.234 360.541C647.723 360.541 646.404 360.805 645.279 361.332C644.189 361.859 643.346 362.615 642.748 363.6C642.186 364.584 641.904 365.797 641.904 367.238H625.451C625.451 364.672 626.031 362.281 627.191 360.066C628.352 357.852 630.004 355.9 632.148 354.213C634.328 352.525 636.93 351.225 639.953 350.311C642.977 349.361 646.369 348.887 650.131 348.887C654.596 348.887 658.568 349.643 662.049 351.154C665.564 352.631 668.342 354.863 670.381 357.852C672.42 360.805 673.439 364.531 673.439 369.031V392.92C673.439 396.365 673.633 399.072 674.02 401.041C674.441 402.975 675.039 404.662 675.812 406.104V407H659.201C658.428 405.348 657.848 403.309 657.461 400.883C657.074 398.422 656.881 395.926 656.881 393.395ZM658.938 372.195L659.043 381.266H650.869C649.041 381.266 647.459 381.494 646.123 381.951C644.822 382.408 643.768 383.041 642.959 383.85C642.15 384.623 641.553 385.537 641.166 386.592C640.814 387.611 640.639 388.736 640.639 389.967C640.639 391.127 640.92 392.182 641.482 393.131C642.045 394.045 642.818 394.766 643.803 395.293C644.787 395.82 645.93 396.084 647.23 396.084C649.375 396.084 651.203 395.662 652.715 394.818C654.262 393.975 655.457 392.955 656.301 391.76C657.145 390.529 657.566 389.387 657.566 388.332L661.521 395.188C660.889 396.594 660.115 398.053 659.201 399.564C658.287 401.041 657.127 402.43 655.721 403.73C654.314 404.996 652.609 406.033 650.605 406.842C648.637 407.65 646.264 408.055 643.486 408.055C639.9 408.055 636.648 407.334 633.73 405.893C630.812 404.416 628.475 402.395 626.717 399.828C624.994 397.262 624.133 394.309 624.133 390.969C624.133 387.98 624.678 385.326 625.768 383.006C626.857 380.686 628.492 378.717 630.672 377.1C632.887 375.482 635.664 374.27 639.004 373.461C642.344 372.617 646.246 372.195 650.711 372.195H658.938ZM713.254 349.941V361.49H679.398V349.941H713.254ZM687.15 335.809H703.656V389.123C703.656 390.705 703.85 391.918 704.236 392.762C704.623 393.605 705.256 394.203 706.135 394.555C707.014 394.871 708.139 395.029 709.51 395.029C710.494 395.029 711.338 394.994 712.041 394.924C712.744 394.854 713.395 394.766 713.992 394.66V406.578C712.586 407.035 711.092 407.387 709.51 407.633C707.928 407.914 706.205 408.055 704.342 408.055C700.791 408.055 697.715 407.475 695.113 406.314C692.547 405.154 690.578 403.326 689.207 400.83C687.836 398.299 687.15 395.012 687.15 390.969V335.809ZM751.381 393.395V368.926C751.381 367.203 751.117 365.727 750.59 364.496C750.062 363.266 749.236 362.299 748.111 361.596C746.986 360.893 745.527 360.541 743.734 360.541C742.223 360.541 740.904 360.805 739.779 361.332C738.689 361.859 737.846 362.615 737.248 363.6C736.686 364.584 736.404 365.797 736.404 367.238H719.951C719.951 364.672 720.531 362.281 721.691 360.066C722.852 357.852 724.504 355.9 726.648 354.213C728.828 352.525 731.43 351.225 734.453 350.311C737.477 349.361 740.869 348.887 744.631 348.887C749.096 348.887 753.068 349.643 756.549 351.154C760.064 352.631 762.842 354.863 764.881 357.852C766.92 360.805 767.939 364.531 767.939 369.031V392.92C767.939 396.365 768.133 399.072 768.52 401.041C768.941 402.975 769.539 404.662 770.312 406.104V407H753.701C752.928 405.348 752.348 403.309 751.961 400.883C751.574 398.422 751.381 395.926 751.381 393.395ZM753.438 372.195L753.543 381.266H745.369C743.541 381.266 741.959 381.494 740.623 381.951C739.322 382.408 738.268 383.041 737.459 383.85C736.65 384.623 736.053 385.537 735.666 386.592C735.314 387.611 735.139 388.736 735.139 389.967C735.139 391.127 735.42 392.182 735.982 393.131C736.545 394.045 737.318 394.766 738.303 395.293C739.287 395.82 740.43 396.084 741.73 396.084C743.875 396.084 745.703 395.662 747.215 394.818C748.762 393.975 749.957 392.955 750.801 391.76C751.645 390.529 752.066 389.387 752.066 388.332L756.021 395.188C755.389 396.594 754.615 398.053 753.701 399.564C752.787 401.041 751.627 402.43 750.221 403.73C748.814 404.996 747.109 406.033 745.105 406.842C743.137 407.65 740.764 408.055 737.986 408.055C734.4 408.055 731.148 407.334 728.23 405.893C725.312 404.416 722.975 402.395 721.217 399.828C719.494 397.262 718.633 394.309 718.633 390.969C718.633 387.98 719.178 385.326 720.268 383.006C721.357 380.686 722.992 378.717 725.172 377.1C727.387 375.482 730.164 374.27 733.504 373.461C736.844 372.617 740.746 372.195 745.211 372.195H753.438ZM795.256 363.23V407H778.803V349.941H794.254L795.256 363.23ZM812.289 349.52L812.025 364.865C811.322 364.76 810.408 364.672 809.283 364.602C808.158 364.496 807.191 364.443 806.383 364.443C804.273 364.443 802.445 364.707 800.898 365.234C799.387 365.727 798.121 366.465 797.102 367.449C796.117 368.434 795.379 369.664 794.887 371.141C794.395 372.582 794.148 374.252 794.148 376.15L791.037 374.621C791.037 370.859 791.406 367.414 792.145 364.285C792.883 361.156 793.955 358.449 795.361 356.164C796.768 353.844 798.49 352.051 800.529 350.785C802.568 349.52 804.889 348.887 807.49 348.887C808.334 348.887 809.195 348.939 810.074 349.045C810.953 349.15 811.691 349.309 812.289 349.52ZM847.568 393.395V368.926C847.568 367.203 847.305 365.727 846.777 364.496C846.25 363.266 845.424 362.299 844.299 361.596C843.174 360.893 841.715 360.541 839.922 360.541C838.41 360.541 837.092 360.805 835.967 361.332C834.877 361.859 834.033 362.615 833.436 363.6C832.873 364.584 832.592 365.797 832.592 367.238H816.139C816.139 364.672 816.719 362.281 817.879 360.066C819.039 357.852 820.691 355.9 822.836 354.213C825.016 352.525 827.617 351.225 830.641 350.311C833.664 349.361 837.057 348.887 840.818 348.887C845.283 348.887 849.256 349.643 852.736 351.154C856.252 352.631 859.029 354.863 861.068 357.852C863.107 360.805 864.127 364.531 864.127 369.031V392.92C864.127 396.365 864.32 399.072 864.707 401.041C865.129 402.975 865.727 404.662 866.5 406.104V407H849.889C849.115 405.348 848.535 403.309 848.148 400.883C847.762 398.422 847.568 395.926 847.568 393.395ZM849.625 372.195L849.73 381.266H841.557C839.729 381.266 838.146 381.494 836.811 381.951C835.51 382.408 834.455 383.041 833.646 383.85C832.838 384.623 832.24 385.537 831.854 386.592C831.502 387.611 831.326 388.736 831.326 389.967C831.326 391.127 831.607 392.182 832.17 393.131C832.732 394.045 833.506 394.766 834.49 395.293C835.475 395.82 836.617 396.084 837.918 396.084C840.062 396.084 841.891 395.662 843.402 394.818C844.949 393.975 846.145 392.955 846.988 391.76C847.832 390.529 848.254 389.387 848.254 388.332L852.209 395.188C851.576 396.594 850.803 398.053 849.889 399.564C848.975 401.041 847.814 402.43 846.408 403.73C845.002 404.996 843.297 406.033 841.293 406.842C839.324 407.65 836.951 408.055 834.174 408.055C830.588 408.055 827.336 407.334 824.418 405.893C821.5 404.416 819.162 402.395 817.404 399.828C815.682 397.262 814.82 394.309 814.82 390.969C814.82 387.98 815.365 385.326 816.455 383.006C817.545 380.686 819.18 378.717 821.359 377.1C823.574 375.482 826.352 374.27 829.691 373.461C833.031 372.617 836.934 372.195 841.398 372.195H849.625ZM898.773 395.24C900.531 395.24 902.061 394.906 903.361 394.238C904.662 393.57 905.664 392.639 906.367 391.443C907.105 390.213 907.475 388.736 907.475 387.014H922.979C922.979 391.162 921.906 394.818 919.762 397.982C917.652 401.146 914.805 403.625 911.219 405.418C907.633 407.176 903.59 408.055 899.09 408.055C894.66 408.055 890.793 407.334 887.488 405.893C884.184 404.416 881.424 402.359 879.209 399.723C876.994 397.086 875.324 394.027 874.199 390.547C873.109 387.031 872.564 383.234 872.564 379.156V377.785C872.564 373.742 873.109 369.963 874.199 366.447C875.324 362.932 876.994 359.855 879.209 357.219C881.424 354.582 884.166 352.543 887.436 351.102C890.74 349.625 894.607 348.887 899.037 348.887C903.713 348.887 907.844 349.783 911.43 351.576C915.051 353.369 917.881 355.953 919.92 359.328C921.959 362.668 922.979 366.693 922.979 371.404H907.475C907.475 369.576 907.141 367.941 906.473 366.5C905.84 365.023 904.855 363.863 903.52 363.02C902.219 362.141 900.602 361.701 898.668 361.701C896.664 361.701 895.012 362.141 893.711 363.02C892.445 363.863 891.479 365.041 890.811 366.553C890.143 368.064 889.686 369.787 889.439 371.721C889.193 373.619 889.07 375.641 889.07 377.785V379.156C889.07 381.336 889.193 383.41 889.439 385.379C889.686 387.312 890.143 389.018 890.811 390.494C891.514 391.971 892.498 393.131 893.764 393.975C895.029 394.818 896.699 395.24 898.773 395.24ZM960.156 349.941V361.49H926.301V349.941H960.156ZM934.053 335.809H950.559V389.123C950.559 390.705 950.752 391.918 951.139 392.762C951.525 393.605 952.158 394.203 953.037 394.555C953.916 394.871 955.041 395.029 956.412 395.029C957.396 395.029 958.24 394.994 958.943 394.924C959.646 394.854 960.297 394.766 960.895 394.66V406.578C959.488 407.035 957.994 407.387 956.412 407.633C954.83 407.914 953.107 408.055 951.244 408.055C947.693 408.055 944.617 407.475 942.016 406.314C939.449 405.154 937.48 403.326 936.109 400.83C934.738 398.299 934.053 395.012 934.053 390.969V335.809ZM461.816 495.594C461.816 493.801 461.535 492.219 460.973 490.848C460.445 489.441 459.496 488.176 458.125 487.051C456.789 485.926 454.926 484.854 452.535 483.834C450.18 482.814 447.191 481.777 443.57 480.723C439.773 479.598 436.346 478.35 433.287 476.979C430.229 475.572 427.609 473.973 425.43 472.18C423.25 470.387 421.58 468.33 420.42 466.01C419.26 463.689 418.68 461.035 418.68 458.047C418.68 455.059 419.295 452.299 420.525 449.768C421.756 447.236 423.514 445.039 425.799 443.176C428.119 441.277 430.879 439.801 434.078 438.746C437.277 437.691 440.846 437.164 444.783 437.164C450.549 437.164 455.436 438.271 459.443 440.486C463.486 442.666 466.562 445.531 468.672 449.082C470.781 452.598 471.836 456.359 471.836 460.367H461.711C461.711 457.484 461.096 454.936 459.865 452.721C458.635 450.471 456.771 448.713 454.275 447.447C451.779 446.146 448.615 445.496 444.783 445.496C441.162 445.496 438.174 446.041 435.818 447.131C433.463 448.221 431.705 449.697 430.545 451.561C429.42 453.424 428.857 455.551 428.857 457.941C428.857 459.559 429.191 461.035 429.859 462.371C430.562 463.672 431.635 464.885 433.076 466.01C434.553 467.135 436.416 468.172 438.666 469.121C440.951 470.07 443.676 470.984 446.84 471.863C451.199 473.094 454.961 474.465 458.125 475.977C461.289 477.488 463.891 479.193 465.93 481.092C468.004 482.955 469.533 485.082 470.518 487.473C471.537 489.828 472.047 492.5 472.047 495.488C472.047 498.617 471.414 501.447 470.148 503.979C468.883 506.51 467.072 508.672 464.717 510.465C462.361 512.258 459.531 513.646 456.227 514.631C452.957 515.58 449.301 516.055 445.258 516.055C441.707 516.055 438.209 515.562 434.764 514.578C431.354 513.594 428.242 512.117 425.43 510.148C422.652 508.18 420.42 505.754 418.732 502.871C417.08 499.953 416.254 496.578 416.254 492.746H426.379C426.379 495.383 426.889 497.65 427.908 499.549C428.928 501.412 430.316 502.959 432.074 504.189C433.867 505.42 435.889 506.334 438.139 506.932C440.424 507.494 442.797 507.775 445.258 507.775C448.809 507.775 451.814 507.283 454.275 506.299C456.736 505.314 458.6 503.908 459.865 502.08C461.166 500.252 461.816 498.09 461.816 495.594ZM506.377 508.039C508.697 508.039 510.842 507.564 512.811 506.615C514.779 505.666 516.396 504.365 517.662 502.713C518.928 501.025 519.648 499.109 519.824 496.965H529.105C528.93 500.34 527.787 503.486 525.678 506.404C523.604 509.287 520.879 511.625 517.504 513.418C514.129 515.176 510.42 516.055 506.377 516.055C502.088 516.055 498.344 515.299 495.145 513.787C491.98 512.275 489.344 510.201 487.234 507.564C485.16 504.928 483.596 501.904 482.541 498.494C481.521 495.049 481.012 491.41 481.012 487.578V485.363C481.012 481.531 481.521 477.91 482.541 474.5C483.596 471.055 485.16 468.014 487.234 465.377C489.344 462.74 491.98 460.666 495.145 459.154C498.344 457.643 502.088 456.887 506.377 456.887C510.842 456.887 514.744 457.801 518.084 459.629C521.424 461.422 524.043 463.883 525.941 467.012C527.875 470.105 528.93 473.621 529.105 477.559H519.824C519.648 475.203 518.98 473.076 517.82 471.178C516.695 469.279 515.148 467.768 513.18 466.643C511.246 465.482 508.979 464.902 506.377 464.902C503.389 464.902 500.875 465.5 498.836 466.695C496.832 467.855 495.232 469.438 494.037 471.441C492.877 473.41 492.033 475.607 491.506 478.033C491.014 480.424 490.768 482.867 490.768 485.363V487.578C490.768 490.074 491.014 492.535 491.506 494.961C491.998 497.387 492.824 499.584 493.984 501.553C495.18 503.521 496.779 505.104 498.783 506.299C500.822 507.459 503.354 508.039 506.377 508.039ZM549.83 466.906V515H540.074V457.941H549.566L549.83 466.906ZM567.654 457.625L567.602 466.695C566.793 466.52 566.02 466.414 565.281 466.379C564.578 466.309 563.77 466.273 562.855 466.273C560.605 466.273 558.619 466.625 556.896 467.328C555.174 468.031 553.715 469.016 552.52 470.281C551.324 471.547 550.375 473.059 549.672 474.816C549.004 476.539 548.564 478.438 548.354 480.512L545.611 482.094C545.611 478.648 545.945 475.414 546.613 472.391C547.316 469.367 548.389 466.695 549.83 464.375C551.271 462.02 553.1 460.191 555.314 458.891C557.564 457.555 560.236 456.887 563.33 456.887C564.033 456.887 564.842 456.975 565.756 457.15C566.67 457.291 567.303 457.449 567.654 457.625ZM599.295 516.055C595.322 516.055 591.719 515.387 588.484 514.051C585.285 512.68 582.525 510.764 580.205 508.303C577.92 505.842 576.162 502.924 574.932 499.549C573.701 496.174 573.086 492.482 573.086 488.475V486.26C573.086 481.619 573.771 477.488 575.143 473.867C576.514 470.211 578.377 467.117 580.732 464.586C583.088 462.055 585.76 460.139 588.748 458.838C591.736 457.537 594.83 456.887 598.029 456.887C602.107 456.887 605.623 457.59 608.576 458.996C611.564 460.402 614.008 462.371 615.906 464.902C617.805 467.398 619.211 470.352 620.125 473.762C621.039 477.137 621.496 480.828 621.496 484.836V489.213H578.887V481.25H611.74V480.512C611.6 477.98 611.072 475.52 610.158 473.129C609.279 470.738 607.873 468.77 605.939 467.223C604.006 465.676 601.369 464.902 598.029 464.902C595.814 464.902 593.775 465.377 591.912 466.326C590.049 467.24 588.449 468.611 587.113 470.439C585.777 472.268 584.74 474.5 584.002 477.137C583.264 479.773 582.895 482.814 582.895 486.26V488.475C582.895 491.182 583.264 493.73 584.002 496.121C584.775 498.477 585.883 500.551 587.324 502.344C588.801 504.137 590.576 505.543 592.65 506.562C594.76 507.582 597.15 508.092 599.822 508.092C603.268 508.092 606.186 507.389 608.576 505.982C610.967 504.576 613.059 502.695 614.852 500.34L620.758 505.033C619.527 506.896 617.963 508.672 616.064 510.359C614.166 512.047 611.828 513.418 609.051 514.473C606.309 515.527 603.057 516.055 599.295 516.055ZM656.564 516.055C652.592 516.055 648.988 515.387 645.754 514.051C642.555 512.68 639.795 510.764 637.475 508.303C635.189 505.842 633.432 502.924 632.201 499.549C630.971 496.174 630.355 492.482 630.355 488.475V486.26C630.355 481.619 631.041 477.488 632.412 473.867C633.783 470.211 635.646 467.117 638.002 464.586C640.357 462.055 643.029 460.139 646.018 458.838C649.006 457.537 652.1 456.887 655.299 456.887C659.377 456.887 662.893 457.59 665.846 458.996C668.834 460.402 671.277 462.371 673.176 464.902C675.074 467.398 676.48 470.352 677.395 473.762C678.309 477.137 678.766 480.828 678.766 484.836V489.213H636.156V481.25H669.01V480.512C668.869 477.98 668.342 475.52 667.428 473.129C666.549 470.738 665.143 468.77 663.209 467.223C661.275 465.676 658.639 464.902 655.299 464.902C653.084 464.902 651.045 465.377 649.182 466.326C647.318 467.24 645.719 468.611 644.383 470.439C643.047 472.268 642.01 474.5 641.271 477.137C640.533 479.773 640.164 482.814 640.164 486.26V488.475C640.164 491.182 640.533 493.73 641.271 496.121C642.045 498.477 643.152 500.551 644.594 502.344C646.07 504.137 647.846 505.543 649.92 506.562C652.029 507.582 654.42 508.092 657.092 508.092C660.537 508.092 663.455 507.389 665.846 505.982C668.236 504.576 670.328 502.695 672.121 500.34L678.027 505.033C676.797 506.896 675.232 508.672 673.334 510.359C671.436 512.047 669.098 513.418 666.32 514.473C663.578 515.527 660.326 516.055 656.564 516.055ZM699.912 470.123V515H690.156V457.941H699.385L699.912 470.123ZM697.592 484.309L693.531 484.15C693.566 480.248 694.146 476.645 695.271 473.34C696.396 470 697.979 467.1 700.018 464.639C702.057 462.178 704.482 460.279 707.295 458.943C710.143 457.572 713.289 456.887 716.734 456.887C719.547 456.887 722.078 457.273 724.328 458.047C726.578 458.785 728.494 459.98 730.076 461.633C731.693 463.285 732.924 465.43 733.768 468.066C734.611 470.668 735.033 473.85 735.033 477.611V515H725.225V477.506C725.225 474.518 724.785 472.127 723.906 470.334C723.027 468.506 721.744 467.188 720.057 466.379C718.369 465.535 716.295 465.113 713.834 465.113C711.408 465.113 709.193 465.623 707.189 466.643C705.221 467.662 703.516 469.068 702.074 470.861C700.668 472.654 699.561 474.711 698.752 477.031C697.979 479.316 697.592 481.742 697.592 484.309ZM760.451 457.941V515H750.643V457.941H760.451ZM749.904 442.807C749.904 441.225 750.379 439.889 751.328 438.799C752.312 437.709 753.754 437.164 755.652 437.164C757.516 437.164 758.939 437.709 759.924 438.799C760.943 439.889 761.453 441.225 761.453 442.807C761.453 444.318 760.943 445.619 759.924 446.709C758.939 447.764 757.516 448.291 755.652 448.291C753.754 448.291 752.312 447.764 751.328 446.709C750.379 445.619 749.904 444.318 749.904 442.807ZM785.869 470.123V515H776.113V457.941H785.342L785.869 470.123ZM783.549 484.309L779.488 484.15C779.523 480.248 780.104 476.645 781.229 473.34C782.354 470 783.936 467.1 785.975 464.639C788.014 462.178 790.439 460.279 793.252 458.943C796.1 457.572 799.246 456.887 802.691 456.887C805.504 456.887 808.035 457.273 810.285 458.047C812.535 458.785 814.451 459.98 816.033 461.633C817.65 463.285 818.881 465.43 819.725 468.066C820.568 470.668 820.99 473.85 820.99 477.611V515H811.182V477.506C811.182 474.518 810.742 472.127 809.863 470.334C808.984 468.506 807.701 467.188 806.014 466.379C804.326 465.535 802.252 465.113 799.791 465.113C797.365 465.113 795.15 465.623 793.146 466.643C791.178 467.662 789.473 469.068 788.031 470.861C786.625 472.654 785.518 474.711 784.709 477.031C783.936 479.316 783.549 481.742 783.549 484.309ZM872.775 457.941H881.635V513.787C881.635 518.814 880.615 523.104 878.576 526.654C876.537 530.205 873.689 532.895 870.033 534.723C866.412 536.586 862.229 537.518 857.482 537.518C855.514 537.518 853.193 537.201 850.521 536.568C847.885 535.971 845.283 534.934 842.717 533.457C840.186 532.016 838.059 530.064 836.336 527.604L841.451 521.803C843.842 524.686 846.338 526.689 848.939 527.814C851.576 528.939 854.178 529.502 856.744 529.502C859.838 529.502 862.51 528.922 864.76 527.762C867.01 526.602 868.75 524.879 869.98 522.594C871.246 520.344 871.879 517.566 871.879 514.262V470.492L872.775 457.941ZM833.488 487.104V485.996C833.488 481.637 833.998 477.682 835.018 474.131C836.072 470.545 837.566 467.469 839.5 464.902C841.469 462.336 843.842 460.367 846.619 458.996C849.396 457.59 852.525 456.887 856.006 456.887C859.592 456.887 862.721 457.52 865.393 458.785C868.1 460.016 870.385 461.826 872.248 464.217C874.146 466.572 875.641 469.42 876.73 472.76C877.82 476.1 878.576 479.879 878.998 484.098V488.949C878.611 493.133 877.855 496.895 876.73 500.234C875.641 503.574 874.146 506.422 872.248 508.777C870.385 511.133 868.1 512.943 865.393 514.209C862.686 515.439 859.521 516.055 855.9 516.055C852.49 516.055 849.396 515.334 846.619 513.893C843.877 512.451 841.521 510.43 839.553 507.828C837.584 505.227 836.072 502.168 835.018 498.652C833.998 495.102 833.488 491.252 833.488 487.104ZM843.244 485.996V487.104C843.244 489.951 843.525 492.623 844.088 495.119C844.686 497.615 845.582 499.812 846.777 501.711C848.008 503.609 849.572 505.104 851.471 506.193C853.369 507.248 855.637 507.775 858.273 507.775C861.508 507.775 864.18 507.09 866.289 505.719C868.398 504.348 870.068 502.537 871.299 500.287C872.564 498.037 873.549 495.594 874.252 492.957V480.248C873.865 478.314 873.268 476.451 872.459 474.658C871.686 472.83 870.666 471.213 869.4 469.807C868.17 468.365 866.641 467.223 864.812 466.379C862.984 465.535 860.84 465.113 858.379 465.113C855.707 465.113 853.404 465.676 851.471 466.801C849.572 467.891 848.008 469.402 846.777 471.336C845.582 473.234 844.686 475.449 844.088 477.98C843.525 480.477 843.244 483.148 843.244 485.996Z" fill="#FEFEFE"/>
<path d="M267 581H1034V664C1034 712.601 994.601 752 946 752H355C306.399 752 267 712.601 267 664V581Z" fill="#FEFEFE"/>
<path d="M376.162 671.223V698.938H373.584V666.754H375.99L376.162 671.223ZM392.318 678.162V678.613C392.318 680.346 392.118 681.936 391.717 683.383C391.316 684.829 390.736 686.083 389.977 687.143C389.232 688.188 388.308 688.997 387.205 689.57C386.102 690.143 384.849 690.43 383.445 690.43C382.056 690.43 380.817 690.215 379.729 689.785C378.64 689.355 377.702 688.747 376.914 687.959C376.141 687.157 375.518 686.226 375.045 685.166C374.587 684.092 374.264 682.917 374.078 681.643V675.691C374.293 674.288 374.644 673.013 375.131 671.867C375.618 670.721 376.241 669.733 377 668.902C377.773 668.072 378.69 667.434 379.75 666.99C380.81 666.546 382.02 666.324 383.381 666.324C384.799 666.324 386.059 666.604 387.162 667.162C388.279 667.706 389.217 668.501 389.977 669.547C390.75 670.578 391.33 671.824 391.717 673.285C392.118 674.732 392.318 676.357 392.318 678.162ZM389.74 678.613V678.162C389.74 676.801 389.597 675.541 389.311 674.381C389.038 673.221 388.616 672.211 388.043 671.352C387.484 670.478 386.768 669.798 385.895 669.311C385.035 668.824 384.011 668.58 382.822 668.58C381.59 668.58 380.538 668.788 379.664 669.203C378.805 669.604 378.089 670.141 377.516 670.814C376.943 671.473 376.492 672.197 376.162 672.984C375.833 673.772 375.589 674.546 375.432 675.305V682.158C375.704 683.247 376.141 684.257 376.742 685.188C377.344 686.104 378.146 686.842 379.148 687.4C380.165 687.945 381.404 688.217 382.865 688.217C384.04 688.217 385.057 687.973 385.916 687.486C386.775 686.999 387.484 686.319 388.043 685.445C388.616 684.572 389.038 683.555 389.311 682.395C389.597 681.234 389.74 679.974 389.74 678.613ZM396.615 678.742V678.033C396.615 676.343 396.859 674.782 397.346 673.35C397.833 671.917 398.527 670.678 399.43 669.633C400.346 668.587 401.442 667.778 402.717 667.205C403.992 666.618 405.41 666.324 406.971 666.324C408.546 666.324 409.971 666.618 411.246 667.205C412.521 667.778 413.617 668.587 414.533 669.633C415.45 670.678 416.152 671.917 416.639 673.35C417.126 674.782 417.369 676.343 417.369 678.033V678.742C417.369 680.432 417.126 681.993 416.639 683.426C416.152 684.844 415.45 686.076 414.533 687.121C413.631 688.167 412.542 688.983 411.268 689.57C409.993 690.143 408.575 690.43 407.014 690.43C405.438 690.43 404.013 690.143 402.738 689.57C401.464 688.983 400.368 688.167 399.451 687.121C398.535 686.076 397.833 684.844 397.346 683.426C396.859 681.993 396.615 680.432 396.615 678.742ZM399.172 678.033V678.742C399.172 680.017 399.344 681.227 399.688 682.373C400.031 683.505 400.533 684.514 401.191 685.402C401.85 686.276 402.667 686.964 403.641 687.465C404.615 687.966 405.739 688.217 407.014 688.217C408.274 688.217 409.384 687.966 410.344 687.465C411.318 686.964 412.134 686.276 412.793 685.402C413.452 684.514 413.946 683.505 414.275 682.373C414.619 681.227 414.791 680.017 414.791 678.742V678.033C414.791 676.773 414.619 675.577 414.275 674.445C413.946 673.314 413.445 672.304 412.771 671.416C412.113 670.528 411.296 669.826 410.322 669.311C409.348 668.795 408.231 668.537 406.971 668.537C405.71 668.537 404.593 668.795 403.619 669.311C402.66 669.826 401.843 670.528 401.17 671.416C400.511 672.304 400.01 673.314 399.666 674.445C399.337 675.577 399.172 676.773 399.172 678.033ZM429.143 684.564L434.75 666.754H436.555L435.48 671.545L429.615 690H427.811L429.143 684.564ZM423.32 666.754L428.24 684.672L429.293 690H427.424L420.678 666.754H423.32ZM443.537 684.607L448.328 666.754H450.971L444.225 690H442.377L443.537 684.607ZM436.92 666.754L442.441 684.414L443.838 690H442.033L436.039 671.523L435.029 666.754H436.92ZM464.893 690.43C463.374 690.43 461.978 690.15 460.703 689.592C459.443 689.033 458.34 688.245 457.395 687.229C456.464 686.212 455.74 685.008 455.225 683.619C454.723 682.215 454.473 680.683 454.473 679.021V678.098C454.473 676.307 454.738 674.689 455.268 673.242C455.798 671.796 456.528 670.557 457.459 669.525C458.39 668.494 459.45 667.706 460.639 667.162C461.842 666.604 463.102 666.324 464.42 666.324C465.895 666.324 467.206 666.589 468.352 667.119C469.497 667.635 470.457 668.372 471.23 669.332C472.018 670.277 472.613 671.402 473.014 672.705C473.415 673.994 473.615 675.419 473.615 676.98V678.549H456.02V676.357H471.059V676.057C471.03 674.753 470.765 673.536 470.264 672.404C469.777 671.258 469.046 670.327 468.072 669.611C467.098 668.895 465.881 668.537 464.42 668.537C463.331 668.537 462.329 668.766 461.412 669.225C460.51 669.683 459.729 670.342 459.07 671.201C458.426 672.046 457.924 673.056 457.566 674.23C457.223 675.391 457.051 676.68 457.051 678.098V679.021C457.051 680.311 457.237 681.514 457.609 682.631C457.996 683.734 458.54 684.708 459.242 685.553C459.958 686.398 460.803 687.057 461.777 687.529C462.751 688.002 463.826 688.238 465 688.238C466.375 688.238 467.592 687.988 468.652 687.486C469.712 686.971 470.665 686.161 471.51 685.059L473.121 686.305C472.62 687.049 471.99 687.737 471.23 688.367C470.486 688.997 469.59 689.499 468.545 689.871C467.499 690.243 466.282 690.43 464.893 690.43ZM481.242 670.6V690H478.686V666.754H481.178L481.242 670.6ZM489.471 666.582L489.406 668.945C489.12 668.902 488.84 668.867 488.568 668.838C488.296 668.809 488.003 668.795 487.688 668.795C486.57 668.795 485.589 669.003 484.744 669.418C483.913 669.819 483.212 670.385 482.639 671.115C482.066 671.831 481.629 672.676 481.328 673.65C481.027 674.61 480.855 675.641 480.812 676.744L479.867 677.109C479.867 675.591 480.025 674.18 480.34 672.877C480.655 671.574 481.135 670.435 481.779 669.461C482.438 668.473 483.262 667.706 484.25 667.162C485.253 666.604 486.427 666.324 487.773 666.324C488.103 666.324 488.425 666.353 488.74 666.41C489.07 666.453 489.313 666.51 489.471 666.582ZM502.061 690.43C500.542 690.43 499.146 690.15 497.871 689.592C496.611 689.033 495.508 688.245 494.562 687.229C493.632 686.212 492.908 685.008 492.393 683.619C491.891 682.215 491.641 680.683 491.641 679.021V678.098C491.641 676.307 491.906 674.689 492.436 673.242C492.965 671.796 493.696 670.557 494.627 669.525C495.558 668.494 496.618 667.706 497.807 667.162C499.01 666.604 500.27 666.324 501.588 666.324C503.063 666.324 504.374 666.589 505.52 667.119C506.665 667.635 507.625 668.372 508.398 669.332C509.186 670.277 509.781 671.402 510.182 672.705C510.583 673.994 510.783 675.419 510.783 676.98V678.549H493.188V676.357H508.227V676.057C508.198 674.753 507.933 673.536 507.432 672.404C506.945 671.258 506.214 670.327 505.24 669.611C504.266 668.895 503.049 668.537 501.588 668.537C500.499 668.537 499.497 668.766 498.58 669.225C497.678 669.683 496.897 670.342 496.238 671.201C495.594 672.046 495.092 673.056 494.734 674.23C494.391 675.391 494.219 676.68 494.219 678.098V679.021C494.219 680.311 494.405 681.514 494.777 682.631C495.164 683.734 495.708 684.708 496.41 685.553C497.126 686.398 497.971 687.057 498.945 687.529C499.919 688.002 500.993 688.238 502.168 688.238C503.543 688.238 504.76 687.988 505.82 687.486C506.88 686.971 507.833 686.161 508.678 685.059L510.289 686.305C509.788 687.049 509.158 687.737 508.398 688.367C507.654 688.997 506.758 689.499 505.713 689.871C504.667 690.243 503.45 690.43 502.061 690.43ZM530.957 685.488V657H533.535V690H531.129L530.957 685.488ZM514.822 678.613V678.162C514.822 676.357 515.03 674.732 515.445 673.285C515.861 671.824 516.455 670.578 517.229 669.547C518.016 668.501 518.962 667.706 520.064 667.162C521.167 666.604 522.413 666.324 523.803 666.324C525.163 666.324 526.367 666.546 527.412 666.99C528.458 667.434 529.353 668.072 530.098 668.902C530.857 669.733 531.465 670.721 531.924 671.867C532.396 673.013 532.74 674.288 532.955 675.691V681.428C532.783 682.745 532.468 683.956 532.01 685.059C531.551 686.147 530.943 687.1 530.184 687.916C529.424 688.718 528.508 689.341 527.434 689.785C526.374 690.215 525.149 690.43 523.76 690.43C522.385 690.43 521.146 690.143 520.043 689.57C518.94 688.997 518.002 688.188 517.229 687.143C516.455 686.083 515.861 684.829 515.445 683.383C515.03 681.936 514.822 680.346 514.822 678.613ZM517.4 678.162V678.613C517.4 679.974 517.536 681.234 517.809 682.395C518.081 683.555 518.496 684.564 519.055 685.424C519.613 686.283 520.322 686.956 521.182 687.443C522.041 687.93 523.058 688.174 524.232 688.174C525.708 688.174 526.947 687.895 527.949 687.336C528.952 686.763 529.754 686.011 530.355 685.08C530.957 684.135 531.394 683.104 531.666 681.986V675.305C531.494 674.546 531.243 673.772 530.914 672.984C530.585 672.197 530.133 671.473 529.561 670.814C529.002 670.141 528.286 669.604 527.412 669.203C526.553 668.788 525.507 668.58 524.275 668.58C523.087 668.58 522.062 668.824 521.203 669.311C520.344 669.798 519.628 670.478 519.055 671.352C518.496 672.211 518.081 673.221 517.809 674.381C517.536 675.541 517.4 676.801 517.4 678.162ZM551.002 657H553.58V685.488L553.408 690H551.002V657ZM569.758 678.162V678.613C569.758 680.346 569.557 681.936 569.156 683.383C568.755 684.829 568.175 686.083 567.416 687.143C566.657 688.188 565.726 688.997 564.623 689.57C563.535 690.143 562.281 690.43 560.863 690.43C559.474 690.43 558.242 690.215 557.168 689.785C556.094 689.341 555.177 688.718 554.418 687.916C553.659 687.1 553.05 686.147 552.592 685.059C552.133 683.956 551.811 682.745 551.625 681.428V675.691C551.84 674.288 552.184 673.013 552.656 671.867C553.129 670.721 553.738 669.733 554.482 668.902C555.242 668.072 556.144 667.434 557.189 666.99C558.249 666.546 559.46 666.324 560.82 666.324C562.238 666.324 563.499 666.604 564.602 667.162C565.719 667.706 566.657 668.501 567.416 669.547C568.175 670.578 568.755 671.824 569.156 673.285C569.557 674.732 569.758 676.357 569.758 678.162ZM567.158 678.613V678.162C567.158 676.801 567.029 675.541 566.771 674.381C566.514 673.221 566.105 672.211 565.547 671.352C565.003 670.478 564.301 669.798 563.441 669.311C562.582 668.824 561.551 668.58 560.348 668.58C559.116 668.58 558.063 668.788 557.189 669.203C556.33 669.604 555.614 670.141 555.041 670.814C554.482 671.473 554.038 672.197 553.709 672.984C553.38 673.772 553.136 674.546 552.979 675.305V681.986C553.222 683.061 553.645 684.07 554.246 685.016C554.848 685.961 555.657 686.727 556.674 687.314C557.691 687.887 558.93 688.174 560.391 688.174C561.565 688.174 562.575 687.93 563.42 687.443C564.279 686.956 564.981 686.283 565.525 685.424C566.084 684.564 566.492 683.555 566.75 682.395C567.022 681.234 567.158 679.974 567.158 678.613ZM582.09 687.68L589.33 666.754H592.102L582.262 693.738C582.061 694.268 581.803 694.855 581.488 695.5C581.188 696.145 580.786 696.76 580.285 697.348C579.798 697.949 579.182 698.436 578.438 698.809C577.707 699.195 576.812 699.389 575.752 699.389C575.48 699.389 575.129 699.353 574.699 699.281C574.284 699.224 573.983 699.167 573.797 699.109L573.775 696.939C573.933 696.982 574.162 697.018 574.463 697.047C574.764 697.076 574.971 697.09 575.086 697.09C576.017 697.09 576.798 696.932 577.428 696.617C578.072 696.302 578.609 695.829 579.039 695.199C579.469 694.583 579.848 693.81 580.178 692.879L582.09 687.68ZM575.322 666.754L582.734 686.713L583.422 689.398L581.553 690.451L572.529 666.754H575.322Z" fill="#2B2A29"/>
<g clip-path="url(#clip0_58_80)">
<path d="M910.229 632.611C910.229 635.306 911.299 637.89 913.205 639.796C915.11 641.701 917.694 642.771 920.389 642.771C923.083 642.771 925.668 641.701 927.573 639.796C929.478 637.89 930.549 635.306 930.549 632.611C930.549 629.917 929.478 627.333 927.573 625.427C925.668 623.522 923.083 622.451 920.389 622.451C917.694 622.451 915.11 623.522 913.205 625.427C911.299 627.333 910.229 629.917 910.229 632.611V632.611ZM932 632.611C932 635.691 930.777 638.644 928.599 640.822C926.422 642.999 923.468 644.223 920.389 644.223C917.309 644.223 914.356 642.999 912.178 640.822C910.001 638.644 908.777 635.691 908.777 632.611C908.777 629.532 910.001 626.578 912.178 624.401C914.356 622.223 917.309 621 920.389 621C923.468 621 926.422 622.223 928.599 624.401C930.777 626.578 932 629.532 932 632.611V632.611ZM916.76 626.809H921.274C923.756 626.809 925.252 628.221 925.252 630.379C925.252 632.031 924.284 633.195 923.083 633.63L925.469 638.417H923.263L921.143 633.952H918.699V638.417H916.76V626.809ZM918.698 628.391V632.421H920.946C922.39 632.421 923.229 631.749 923.229 630.447C923.229 629.122 922.364 628.391 920.998 628.391H918.698Z" fill="#2B2A29"/>
</g>
<path d="M622.475 680.717H641.326V689.814H611V632.604H622.475V680.717Z" fill="#2B2A29"/>
<path d="M668.782 690.552C664.411 690.552 660.477 689.596 656.98 687.683C653.483 685.716 650.723 682.957 648.702 679.405C646.734 675.853 645.751 671.755 645.751 667.111C645.751 662.466 646.762 658.368 648.784 654.816C650.86 651.265 653.674 648.533 657.226 646.62C660.777 644.653 664.739 643.669 669.11 643.669C673.482 643.669 677.443 644.653 680.995 646.62C684.547 648.533 687.333 651.265 689.355 654.816C691.431 658.368 692.47 662.466 692.47 667.111C692.47 671.755 691.404 675.853 689.273 679.405C687.197 682.957 684.355 685.716 680.749 687.683C677.197 689.596 673.208 690.552 668.782 690.552ZM668.782 680.553C670.859 680.553 672.799 680.061 674.602 679.077C676.46 678.039 677.935 676.509 679.028 674.487C680.121 672.466 680.667 670.007 680.667 667.111C680.667 662.794 679.52 659.488 677.225 657.193C674.984 654.844 672.225 653.669 668.946 653.669C665.668 653.669 662.908 654.844 660.668 657.193C658.482 659.488 657.39 662.794 657.39 667.111C657.39 671.427 658.455 674.761 660.586 677.11C662.772 679.405 665.504 680.553 668.782 680.553Z" fill="#2B2A29"/>
<path d="M718.673 643.669C722.06 643.669 725.038 644.352 727.607 645.718C730.175 647.03 732.197 648.751 733.672 650.882V644.407H745.229V690.142C745.229 694.35 744.382 698.093 742.688 701.371C740.994 704.704 738.453 707.327 735.065 709.24C731.677 711.207 727.579 712.19 722.771 712.19C716.323 712.19 711.023 710.688 706.87 707.682C702.772 704.677 700.45 700.579 699.903 695.388H711.296C711.897 697.464 713.181 699.103 715.148 700.306C717.17 701.562 719.602 702.191 722.443 702.191C725.776 702.191 728.481 701.18 730.557 699.158C732.634 697.191 733.672 694.186 733.672 690.142V683.093C732.197 685.224 730.147 687 727.525 688.421C724.957 689.842 722.006 690.552 718.673 690.552C714.848 690.552 711.351 689.568 708.181 687.601C705.012 685.634 702.499 682.875 700.641 679.323C698.838 675.717 697.936 671.591 697.936 666.947C697.936 662.357 698.838 658.286 700.641 654.734C702.499 651.183 704.985 648.451 708.1 646.538C711.269 644.626 714.793 643.669 718.673 643.669ZM733.672 667.111C733.672 664.324 733.125 661.947 732.033 659.98C730.94 657.958 729.464 656.428 727.607 655.39C725.749 654.297 723.754 653.751 721.623 653.751C719.492 653.751 717.525 654.27 715.722 655.308C713.919 656.346 712.444 657.876 711.296 659.898C710.203 661.865 709.657 664.215 709.657 666.947C709.657 669.679 710.203 672.083 711.296 674.16C712.444 676.181 713.919 677.739 715.722 678.831C717.58 679.924 719.547 680.471 721.623 680.471C723.754 680.471 725.749 679.952 727.607 678.913C729.464 677.821 730.94 676.291 732.033 674.323C733.125 672.302 733.672 669.897 733.672 667.111Z" fill="#2B2A29"/>
<path d="M799.876 644.407L771.763 711.289H759.55L769.386 688.667L751.19 644.407H764.058L775.779 676.127L787.663 644.407H799.876Z" fill="#2B2A29"/>
<path d="M811.143 690.388C809.067 690.388 807.346 689.76 805.98 688.503C804.668 687.192 804.012 685.58 804.012 683.667C804.012 681.755 804.668 680.17 805.98 678.913C807.346 677.602 809.067 676.946 811.143 676.946C813.165 676.946 814.832 677.602 816.143 678.913C817.454 680.17 818.11 681.755 818.11 683.667C818.11 685.58 817.454 687.192 816.143 688.503C814.832 689.76 813.165 690.388 811.143 690.388Z" fill="#2B2A29"/>
<path d="M862.433 678.913H839.647L835.877 689.814H823.828L844.401 632.522H857.761L878.333 689.814H866.203L862.433 678.913ZM859.318 669.734L851.04 645.8L842.762 669.734H859.318Z" fill="#428BCA"/>
<path d="M897.498 632.604V689.814H886.023V632.604H897.498Z" fill="#428BCA"/>
<defs>
<filter id="filter0_d_58_80" x="0" y="0" width="1302" height="1625" filterUnits="userSpaceOnUse" color-interpolation-filters="sRGB">
<feFlood flood-opacity="0" result="BackgroundImageFix"/>
<feColorMatrix in="SourceAlpha" type="matrix" values="0 0 0 0 0 0 0 0 0 0 0 0 0 0 0 0 0 0 127 0" result="hardAlpha"/>
<feOffset dy="10"/>
<feGaussianBlur stdDeviation="47"/>
<feComposite in2="hardAlpha" operator="out"/>
<feColorMatrix type="matrix" values="0 0 0 0 0.168627 0 0 0 0 0.164706 0 0 0 0 0.160784 0 0 0 0.3 0"/>
<feBlend mode="normal" in2="BackgroundImageFix" result="effect1_dropShadow_58_80"/>
<feBlend mode="normal" in="SourceGraphic" in2="effect1_dropShadow_58_80" result="shape"/>
</filter>
<clipPath id="clip0_58_80">
<rect width="23.2228" height="23.2228" fill="white" transform="translate(908.777 621)"/>
</clipPath>
</defs>
</svg>
