<svg width="624" height="624" viewBox="0 0 624 624" fill="none" xmlns="http://www.w3.org/2000/svg">
<path fill-rule="evenodd" clip-rule="evenodd" d="M312 624C484.313 624 624 484.313 624 312C624 139.687 484.313 0 312 0C139.687 0 0 139.687 0 312C0 484.313 139.687 624 312 624ZM311.657 524.313C429.104 524.313 524.313 429.104 524.313 311.657C524.313 194.21 429.104 99 311.657 99C194.21 99 99 194.21 99 311.657C99 429.104 194.21 524.313 311.657 524.313Z" fill="#166937"/>
<path fill-rule="evenodd" clip-rule="evenodd" d="M312 0H0V312C0 139.688 139.687 0 312 0ZM624 312V0H312C484.313 0 624 139.688 624 312Z" fill="#FEFEFE"/>
</svg>
