<svg width="852" height="184" viewBox="0 0 852 184" fill="none" xmlns="http://www.w3.org/2000/svg">
<path d="M0 46C0 20.5949 20.5949 0 46 0H806C831.405 0 852 20.5949 852 46V138C852 163.405 831.405 184 806 184H46C20.5949 184 0 163.405 0 138V46Z" fill="#166937"/>
<path d="M189.636 103.529H205.404C205.087 108.697 203.663 113.285 201.132 117.293C198.636 121.301 195.138 124.43 190.638 126.68C186.173 128.93 180.794 130.055 174.501 130.055C169.579 130.055 165.167 129.211 161.265 127.523C157.363 125.801 154.023 123.34 151.245 120.141C148.503 116.941 146.411 113.074 144.97 108.539C143.529 104.004 142.808 98.9238 142.808 93.2988V87.9727C142.808 82.3477 143.546 77.2676 145.023 72.7324C146.534 68.1621 148.679 64.2773 151.456 61.0781C154.269 57.8789 157.626 55.418 161.529 53.6953C165.431 51.9727 169.79 51.1113 174.607 51.1113C181.005 51.1113 186.402 52.2715 190.796 54.5918C195.226 56.9121 198.654 60.1113 201.079 64.1895C203.54 68.2676 205.017 72.9082 205.509 78.1113H189.689C189.513 75.0176 188.898 72.3984 187.843 70.2539C186.788 68.0742 185.189 66.4395 183.044 65.3496C180.935 64.2246 178.122 63.6621 174.607 63.6621C171.97 63.6621 169.667 64.1543 167.699 65.1387C165.73 66.123 164.077 67.6172 162.741 69.6211C161.406 71.625 160.404 74.1562 159.736 77.2148C159.103 80.2383 158.786 83.7891 158.786 87.8672V93.2988C158.786 97.2715 159.085 100.77 159.683 103.793C160.281 106.781 161.195 109.312 162.425 111.387C163.691 113.426 165.308 114.973 167.277 116.027C169.281 117.047 171.689 117.557 174.501 117.557C177.806 117.557 180.531 117.029 182.675 115.975C184.82 114.92 186.454 113.355 187.579 111.281C188.74 109.207 189.425 106.623 189.636 103.529ZM262.992 116.66V129H224.337V116.66H262.992ZM229.453 52.2188V129H213.632V52.2188H229.453ZM286.724 52.2188V129H270.957V52.2188H286.724ZM343.89 103.529H359.658C359.342 108.697 357.918 113.285 355.386 117.293C352.89 121.301 349.392 124.43 344.892 126.68C340.428 128.93 335.049 130.055 328.756 130.055C323.834 130.055 319.422 129.211 315.519 127.523C311.617 125.801 308.277 123.34 305.5 120.141C302.758 116.941 300.666 113.074 299.224 108.539C297.783 104.004 297.062 98.9238 297.062 93.2988V87.9727C297.062 82.3477 297.801 77.2676 299.277 72.7324C300.789 68.1621 302.933 64.2773 305.711 61.0781C308.523 57.8789 311.881 55.418 315.783 53.6953C319.685 51.9727 324.045 51.1113 328.861 51.1113C335.26 51.1113 340.656 52.2715 345.051 54.5918C349.48 56.9121 352.908 60.1113 355.334 64.1895C357.795 68.2676 359.271 72.9082 359.763 78.1113H343.943C343.767 75.0176 343.152 72.3984 342.097 70.2539C341.043 68.0742 339.443 66.4395 337.299 65.3496C335.189 64.2246 332.377 63.6621 328.861 63.6621C326.224 63.6621 323.922 64.1543 321.953 65.1387C319.984 66.123 318.332 67.6172 316.996 69.6211C315.66 71.625 314.658 74.1562 313.99 77.2148C313.357 80.2383 313.041 83.7891 313.041 87.8672V93.2988C313.041 97.2715 313.34 100.77 313.937 103.793C314.535 106.781 315.449 109.312 316.679 111.387C317.945 113.426 319.562 114.973 321.531 116.027C323.535 117.047 325.943 117.557 328.756 117.557C332.06 117.557 334.785 117.029 336.929 115.975C339.074 114.92 340.709 113.355 341.834 111.281C342.994 109.207 343.679 106.623 343.89 103.529ZM383.707 52.2188V129H367.887V52.2188H383.707ZM429.691 52.2188L399.264 90.1348L381.703 109.014L378.855 94.0371L390.721 77.7949L410.285 52.2188H429.691ZM411.709 129L389.086 93.5098L400.793 83.7012L430.43 129H411.709ZM510.326 83.4902V95.8301H470.248V83.4902H510.326ZM474.942 52.2188V129H459.121V52.2188H474.942ZM521.612 52.2188V129H505.844V52.2188H521.612ZM584.737 116.66V129H543.868V116.66H584.737ZM549.036 52.2188V129H533.215V52.2188H549.036ZM579.411 83.4902V95.5137H543.868V83.4902H579.411ZM584.684 52.2188V64.6113H543.868V52.2188H584.684ZM591.805 52.2188H620.44C626.311 52.2188 631.356 53.0977 635.575 54.8555C639.829 56.6133 643.098 59.2148 645.383 62.6602C647.669 66.1055 648.811 70.3418 648.811 75.3691C648.811 79.4824 648.108 83.0156 646.702 85.9688C645.331 88.8867 643.379 91.3301 640.848 93.2988C638.352 95.2324 635.417 96.7793 632.042 97.9395L627.032 100.576H602.141L602.036 88.2363H620.545C623.323 88.2363 625.626 87.7441 627.454 86.7598C629.282 85.7754 630.653 84.4043 631.567 82.6465C632.516 80.8887 632.991 78.8496 632.991 76.5293C632.991 74.0684 632.534 71.9414 631.62 70.1484C630.706 68.3555 629.317 66.9844 627.454 66.0352C625.59 65.0859 623.253 64.6113 620.44 64.6113H607.626V129H591.805V52.2188ZM634.731 129L617.223 94.7754L633.94 94.6699L651.659 128.262V129H634.731ZM710.354 116.66V129H669.485V116.66H710.354ZM674.653 52.2188V129H658.833V52.2188H674.653ZM705.028 83.4902V95.5137H669.485V83.4902H705.028ZM710.302 52.2188V64.6113H669.485V52.2188H710.302Z" fill="white"/>
</svg>
